<?xml version="1.0" encoding="UTF-8"?>
<svg id="Capa_2" data-name="Capa 2" xmlns="http://www.w3.org/2000/svg" viewBox="0 0 224.27 177.8">
  <defs>
    <style>
      .cls-1 {
        fill: #0741ad; 
      }
    </style>
  </defs>
  <g id="Capa_1-2" data-name="Capa 1">
    <g>
      <path class="cls-1" d="m112.17,177.72c-35.96,0-71.92-.05-107.89.08-3.52.01-4.27-1.03-4.27-4.36C.12,117.11.13,60.78,0,4.45,0,.72,1.1.02,4.6.02,76.27.12,147.95.14,219.62,0c3.91,0,4.65,1.1,4.64,4.75-.12,56.21-.12,112.42,0,168.63,0,3.72-1.08,4.43-4.59,4.42-35.84-.13-71.67-.08-107.51-.08Zm.2-170.62c-33.71,0-67.43.04-101.14-.06-3.06,0-4.19.42-4.18,3.93.14,51.98.13,103.96.02,155.94,0,3.06.67,3.89,3.83,3.89,67.43-.1,134.86-.11,202.29.01,3.41,0,4.02-.94,4.02-4.12-.1-51.48-.07-102.97-.07-154.45,0-5.06,0-5.11-5.12-5.12-33.22-.02-66.43,0-99.65-.01Z"/>
      <path class="cls-1" d="m69.72,46.13c-16.29,0-31.76,0-47.23,0-6.19,0-6.3-.12-6.31-6.31,0-6.84.09-13.68-.04-20.52-.06-3.26,1.01-4.64,4.52-4.63,26.97.11,53.94.05,80.91.06,4.05,0,5.3,1.27,5.32,5.32.02,6.22-.5,12.49.13,18.64.92,8.95-2.54,16.03-7.34,23.16-15.19,22.54-30.05,45.3-45.01,67.99-1.4,2.12-1.51,3.43,1.84,3.4,14.98-.12,29.96-.06,44.95-.05,4.56,0,5.42.84,5.43,5.4.03,6.96-.06,13.93.04,20.89.05,3.47-1.53,4.97-4.94,4.97-27.09-.02-54.19-.04-81.28.03-3.41,0-4.65-1.31-4.57-4.65.16-6.21.44-12.47-.06-18.64-.6-7.42,1.95-13.39,5.9-19.5,13.8-21.35,27.17-42.98,40.72-64.51,2.19-3.48,4.41-6.94,7.03-11.06Z"/>
      <path class="cls-1" d="m174,46.13c-16.39,0-31.87,0-47.34,0-6.16,0-6.28-.13-6.28-6.32,0-6.96.06-13.93-.02-20.89-.03-2.91.97-4.24,4.13-4.23,27.09.08,54.19.04,81.28.05,4.02,0,5.3,1.3,5.31,5.34.02,8.46,0,16.91,0,25.37,0,3.64-1.04,6.9-3.06,9.96-16.34,24.7-32.65,49.43-48.93,74.17-.57.87-1.61,1.83-1.05,2.96.61,1.23,1.99.65,3.02.65,14.86.04,29.72.02,44.57.03,4.57,0,5.43.84,5.45,5.39.03,6.96-.06,13.93.03,20.89.05,3.46-1.53,4.98-4.93,4.98-27.09-.02-54.19-.04-81.28.03-3.41,0-4.67-1.3-4.57-4.65.17-5.47.46-10.98-.05-16.4-.79-8.36,1.56-15.46,6.12-22.44,11.31-17.32,22.16-34.94,33.22-52.42,4.61-7.28,9.3-14.52,14.39-22.46Z"/>
    </g>
  </g>
</svg>